<?xml version="1.0" encoding="utf-8"?>
<!-- Generator: Adobe Illustrator 24.0.2, SVG Export Plug-In . SVG Version: 6.00 Build 0)  -->
<svg version="1.1" id="Layer_1" xmlns="http://www.w3.org/2000/svg" xmlns:xlink="http://www.w3.org/1999/xlink" x="0px" y="0px"
	 viewBox="0 0 119.66 40" style="enable-background:new 0 0 119.66 40;" xml:space="preserve">
<style type="text/css">
	.st0{fill:#A6A6A6;}
	.st1{fill:#FFFFFF;stroke:#FFFFFF;stroke-width:0.2;stroke-miterlimit:10;}
	.st2{fill:#FFFFFF;}
	.st3{fill:url(#SVGID_1_);}
	.st4{fill:url(#SVGID_2_);}
	.st5{fill:url(#SVGID_3_);}
	.st6{fill:url(#SVGID_4_);}
	.st7{opacity:0.2;enable-background:new    ;}
	.st8{opacity:0.12;enable-background:new    ;}
	.st9{opacity:0.25;fill:#FFFFFF;enable-background:new    ;}
</style>
<path d="M-9.76-4.59h140.14c3.1,0,5.61,2.73,5.61,6.1V38.1c0,3.37-2.51,6.1-5.61,6.1H-9.76c-3.1,0-5.61-2.73-5.61-6.1V1.51
	C-15.37-1.86-12.86-4.59-9.76-4.59z"/>
<path class="st0" d="M130.38-3.61c2.6,0,4.71,2.29,4.71,5.12V38.1c0,2.83-2.11,5.12-4.71,5.12H-9.76c-2.6,0-4.71-2.29-4.71-5.12l0,0
	V1.51c0-2.83,2.11-5.12,4.71-5.12l0,0H130.38 M130.38-4.59H-9.76c-3.1,0-5.61,2.73-5.61,6.1V38.1c0,3.37,2.51,6.1,5.61,6.1h140.14
	c3.1,0,5.61-2.73,5.61-6.1V1.51C135.98-1.86,133.47-4.59,130.38-4.59z"/>
<path class="st1" d="M37.8,7.9c0.04,0.9-0.27,1.79-0.84,2.44c-0.64,0.73-1.54,1.12-2.47,1.09c-1.95-0.02-3.52-1.75-3.5-3.87
	c0.01-1,0.38-1.97,1.03-2.68c0.65-0.72,1.55-1.12,2.48-1.1c0.47,0,0.94,0.1,1.38,0.3c0.41,0.18,0.77,0.46,1.05,0.82l-0.59,0.65
	c-0.45-0.59-1.13-0.91-1.84-0.87c-1.44-0.01-2.61,1.25-2.61,2.82c0,0.04,0,0.07,0,0.11c-0.02,1.59,1.15,2.9,2.61,2.92
	c0.7,0.01,1.37-0.28,1.88-0.81c0.34-0.41,0.54-0.93,0.56-1.49h-2.43V7.35h3.26C37.78,7.53,37.8,7.72,37.8,7.9z M42.93,4.85H39.9
	v2.32h2.76v0.88H39.9v2.32h3.03v0.9h-3.92V3.95h3.92V4.85z M46.61,11.27h-0.86V4.85h-1.88v-0.9h4.68v0.9h-1.93V11.27z M51.83,11.27
	V3.95h0.86v7.32H51.83z M56.53,11.27h-0.86V4.85h-1.88v-0.9h4.62v0.9h-1.87L56.53,11.27z M67.16,10.31c-1.36,1.48-3.57,1.48-4.93,0
	c-1.32-1.52-1.32-3.9,0-5.43c1.35-1.48,3.55-1.49,4.92-0.02c0.01,0.01,0.01,0.01,0.02,0.02C68.49,6.41,68.49,8.79,67.16,10.31z
	 M62.86,9.71c1.01,1.09,2.64,1.09,3.65,0c0.99-1.19,0.99-3.01,0-4.2c-1.01-1.09-2.64-1.09-3.65,0C61.87,6.7,61.87,8.51,62.86,9.71z
	 M69.37,11.27V3.95h1.05l3.27,5.7v-5.7h0.86v7.32h-0.9L70.24,5.3v5.96H69.37z"/>
<path class="st2" d="M61.03,21.94c-2.63,0.01-4.75,2.35-4.74,5.21c0.01,2.86,2.16,5.17,4.79,5.16c2.62-0.01,4.74-2.33,4.74-5.18
	c0.04-2.82-2.03-5.14-4.63-5.18C61.13,21.94,61.08,21.94,61.03,21.94z M61.03,30.27c-1.59,0.12-2.98-1.19-3.09-2.92
	c-0.11-1.73,1.09-3.24,2.68-3.36c1.59-0.12,2.98,1.19,3.09,2.92c0,0.07,0.01,0.14,0.01,0.21c0.07,1.66-1.1,3.06-2.62,3.14
	C61.07,30.27,61.05,30.27,61.03,30.27z M50.59,21.94c-2.63,0.01-4.76,2.33-4.75,5.2c0.01,2.86,2.14,5.18,4.78,5.17
	c2.63-0.01,4.75-2.33,4.75-5.18c0.04-2.82-2.03-5.14-4.63-5.18c-0.05,0-0.11,0-0.16,0L50.59,21.94z M50.59,30.27
	c-1.59,0.13-2.98-1.17-3.1-2.91c-0.12-1.73,1.08-3.24,2.67-3.37c1.59-0.13,2.98,1.17,3.1,2.91c0.01,0.07,0.01,0.15,0.01,0.22
	c0.07,1.66-1.1,3.06-2.62,3.14c-0.02,0-0.05,0-0.07,0H50.59z M38.16,23.54v2.2H43c-0.08,1.03-0.47,2.01-1.12,2.77
	c-0.98,1.09-2.34,1.67-3.73,1.61c-2.97,0-5.38-2.62-5.38-5.85s2.41-5.85,5.38-5.85c1.37-0.02,2.68,0.54,3.67,1.57l1.42-1.55
	c-1.34-1.48-3.17-2.3-5.08-2.28c-4.09-0.17-7.53,3.29-7.69,7.74c-0.16,4.45,3.03,8.2,7.12,8.37c0.19,0.01,0.38,0.01,0.58,0
	c1.94,0.1,3.83-0.73,5.17-2.26c1.17-1.4,1.8-3.25,1.75-5.15c0-0.46-0.03-0.92-0.11-1.38L38.16,23.54z M88.95,25.24
	c-0.6-1.92-2.22-3.23-4.08-3.31c-2.48-0.01-4.49,2.17-4.49,4.87c0,0.1,0,0.21,0.01,0.31c-0.06,2.8,1.99,5.12,4.56,5.18
	c0.06,0,0.11,0,0.17,0c1.59,0.01,3.08-0.85,3.97-2.29l-1.63-1.22c-0.49,0.9-1.38,1.44-2.34,1.44c-0.99,0.04-1.91-0.58-2.31-1.57
	l6.38-2.87L88.95,25.24z M82.45,26.98c-0.09-1.57,1-2.92,2.44-3.02c0.02,0,0.04,0,0.05,0c0.74-0.05,1.44,0.38,1.77,1.1L82.45,26.98z
	 M77.27,32h2.1V16.75h-2.1V32z M73.84,23.1h-0.08c-0.64-0.78-1.55-1.22-2.51-1.22c-2.63,0.14-4.67,2.58-4.54,5.44
	c0.12,2.67,2.08,4.81,4.54,4.94c0.96,0.02,1.88-0.43,2.51-1.22h0.07v0.74c0,1.99-0.98,3.05-2.54,3.05c-1.07-0.03-2.02-0.75-2.4-1.84
	l-1.83,0.83c0.7,1.86,2.38,3.07,4.23,3.06c2.46,0,4.48-1.57,4.48-5.4v-9.23h-1.93V23.1z M71.44,30.27c-1.6-0.15-2.78-1.69-2.64-3.42
	c0.12-1.53,1.24-2.73,2.64-2.87c1.48,0.08,2.63,1.46,2.55,3.07c0,0.02,0,0.05,0,0.07c0.12,1.6-0.96,3-2.43,3.14
	c-0.04,0-0.08,0.01-0.12,0.01H71.44z M98.77,16.75h-5.01V32h2.1v-5.78h2.93c2.4,0.19,4.49-1.78,4.66-4.39
	c0.17-2.61-1.64-4.88-4.04-5.07c-0.21-0.02-0.42-0.02-0.63,0H98.77z M98.77,24.07h-2.93v-5.2h2.97c1.33,0,2.4,1.17,2.4,2.62
	s-1.08,2.62-2.4,2.62L98.77,24.07z M111.7,21.88c-1.56-0.1-3.03,0.81-3.73,2.33l1.86,0.84c0.37-0.75,1.12-1.19,1.91-1.12
	c1.11-0.14,2.11,0.72,2.24,1.93c0,0.01,0,0.03,0,0.04v0.16c-0.67-0.39-1.42-0.59-2.19-0.59c-2.01,0-4.04,1.22-4.04,3.43
	c0.08,1.94,1.6,3.45,3.38,3.36c0.03,0,0.06,0,0.09-0.01c1.08,0.08,2.11-0.48,2.69-1.46h0.07V32h2.02v-5.87
	c0-2.67-1.86-4.22-4.25-4.22L111.7,21.88z M111.44,30.23c-0.68,0-1.64-0.38-1.64-1.29c0-1.22,1.19-1.62,2.24-1.62
	c0.67-0.02,1.32,0.16,1.91,0.51c-0.14,1.37-1.19,2.41-2.46,2.44L111.44,30.23z M123.36,22.24l-2.4,6.61h-0.07l-2.49-6.61h-2.24
	l3.73,9.25l-2.13,5.13h2.19l5.74-14.38H123.36z M104.51,32h2.1V16.75h-2.1V32z"/>
<linearGradient id="SVGID_1_" gradientUnits="userSpaceOnUse" x1="10.1863" y1="4.0339" x2="-10.2799" y2="24.5001" gradientTransform="matrix(1 0 0 1 0 2)">
	<stop  offset="0" style="stop-color:#00A0FF"/>
	<stop  offset="0.01" style="stop-color:#00A1FF"/>
	<stop  offset="0.26" style="stop-color:#00BEFF"/>
	<stop  offset="0.51" style="stop-color:#00D2FF"/>
	<stop  offset="0.76" style="stop-color:#00DFFF"/>
	<stop  offset="1" style="stop-color:#00E3FF"/>
</linearGradient>
<path class="st3" d="M-3.66,4.61c-0.37,0.48-0.55,1.09-0.52,1.71v26.98c-0.03,0.62,0.15,1.23,0.52,1.71l0.08,0.09l13.89-15.1v-0.35
	L-3.58,4.52L-3.66,4.61z"/>
<linearGradient id="SVGID_2_" gradientUnits="userSpaceOnUse" x1="22.5606" y1="17.8041" x2="-4.5593" y2="17.8041" gradientTransform="matrix(1 0 0 1 0 2)">
	<stop  offset="0" style="stop-color:#FFE000"/>
	<stop  offset="0.41" style="stop-color:#FFBD00"/>
	<stop  offset="0.78" style="stop-color:#FFA500"/>
	<stop  offset="1" style="stop-color:#FF9C00"/>
</linearGradient>
<path class="st4" d="M14.9,25.02l-4.6-5.04v-0.35l4.6-5.05l0.1,0.06l5.5,3.4c1.57,0.96,1.57,2.55,0,3.52l-5.48,3.39L14.9,25.02z"/>
<linearGradient id="SVGID_3_" gradientUnits="userSpaceOnUse" x1="12.5557" y1="20.4997" x2="-14.0696" y2="47.1134" gradientTransform="matrix(1 0 0 1 0 2)">
	<stop  offset="0" style="stop-color:#FF3A44"/>
	<stop  offset="1" style="stop-color:#C31162"/>
</linearGradient>
<path class="st5" d="M15.04,24.95l-4.73-5.15L-3.66,35c0.66,0.63,1.64,0.66,2.33,0.07l16.38-10.12"/>
<linearGradient id="SVGID_4_" gradientUnits="userSpaceOnUse" x1="-7.9511" y1="-5.3929" x2="3.94" y2="6.4981" gradientTransform="matrix(1 0 0 1 0 2)">
	<stop  offset="0" style="stop-color:#32A071"/>
	<stop  offset="0.07" style="stop-color:#2DA771"/>
	<stop  offset="0.48" style="stop-color:#15CF74"/>
	<stop  offset="0.8" style="stop-color:#06E775"/>
	<stop  offset="1" style="stop-color:#00F076"/>
</linearGradient>
<path class="st6" d="M15.04,14.66L-1.34,4.53c-0.69-0.59-1.67-0.56-2.33,0.07l13.98,15.2L15.04,14.66z"/>
<path class="st7" d="M14.9,24.84L-1.34,34.9c-0.66,0.54-1.58,0.54-2.24,0l-0.08,0.09l0.08,0.09c0.66,0.54,1.58,0.54,2.24,0
	l16.38-10.12L14.9,24.84z"/>
<path class="st8" d="M-3.66,34.83c-0.37-0.48-0.55-1.09-0.52-1.71v0.18c-0.03,0.62,0.15,1.23,0.52,1.71l0.08-0.09L-3.66,34.83z
	 M20.51,21.39l-5.61,3.45l0.1,0.11l5.5-3.39c0.64-0.32,1.06-0.99,1.12-1.76C21.5,20.49,21.09,21.08,20.51,21.39z"/>
<path class="st9" d="M-1.34,4.7l21.85,13.51c0.58,0.31,0.99,0.9,1.12,1.59c-0.06-0.76-0.49-1.43-1.12-1.76L-1.34,4.53
	c-1.57-0.96-2.85-0.16-2.85,1.79v0.18C-4.16,4.55-2.9,3.74-1.34,4.7z"/>
</svg>
